<?xml version="1.0" encoding="UTF-8"?>
<svg width="533px" height="306px" viewBox="0 0 533 306" version="1.1" xmlns="http://www.w3.org/2000/svg" xmlns:xlink="http://www.w3.org/1999/xlink">
    <!-- Generator: Sketch 49.3 (51167) - http://www.bohemiancoding.com/sketch -->
    <title>undraw_Progress_indicator_re_4o4n</title>
    <desc>Created with Sketch.</desc>
    <defs></defs>
    <g id="Page-1" stroke="none" stroke-width="1" fill="none" fill-rule="evenodd">
        <g id="undraw_Progress_indicator_re_4o4n" fill-rule="nonzero">
            <path d="M84.1749347,139 C61.986931,139 44,120.643675 44,98 C44,75.3563253 61.986931,57 84.1749347,57 L449.825065,57 C472.013069,57 490,75.3563253 490,98 C490,120.643675 472.013069,139 449.825065,139 L84.1749347,139 Z" id="Shape" fill="#E6E6E6"></path>
            <path d="M83.8930481,63 C64.6221498,63 49,78.8938914 49,98.5 C49,118.106109 64.6221498,134 83.8930481,134 L449.106952,134 C468.37785,134 484,118.106109 484,98.5 C484,78.8938914 468.37785,63 449.106952,63 L83.8930481,63 Z" id="Shape" fill="#FFFFFF"></path>
            <rect id="Rectangle-path" fill="#E6E6E6" x="121" y="63" width="1" height="71"></rect>
            <rect id="Rectangle-path" fill="#E6E6E6" x="194" y="63" width="1" height="71"></rect>
            <rect id="Rectangle-path" fill="#E6E6E6" x="266" y="63" width="1" height="71"></rect>
            <rect id="Rectangle-path" fill="#E6E6E6" x="339" y="63" width="1" height="71"></rect>
            <rect id="Rectangle-path" fill="#E6E6E6" x="411" y="63" width="1" height="71"></rect>
            <path d="M141.708009,87.0000026 C141.098174,86.9990055 140.534179,87.2846851 140.228934,87.7491954 C139.923689,88.2137057 139.923689,88.786294 140.228934,89.2508043 C140.534179,89.7153146 141.098174,90.0009942 141.708009,89.9999971 L176.291835,89.9999971 C177.233391,90.0016121 177.998161,89.3313497 177.999997,88.5029241 C178.001832,87.6744985 177.240038,87.0016176 176.298482,87.0000026 L141.708009,87.0000026 Z" id="Shape" fill="#E6E6E6"></path>
            <path d="M141.708009,96.0000026 C141.098174,95.9990055 140.534179,96.2846851 140.228934,96.7491954 C139.923689,97.2137057 139.923689,97.786294 140.228934,98.2508043 C140.534179,98.7153146 141.098174,99.0009942 141.708009,98.9999971 L176.291835,98.9999971 C177.233391,99.0016121 177.998161,98.3313497 177.999997,97.5029241 C178.001832,96.6744985 177.240038,96.0016176 176.298482,96.0000026 L141.708009,96.0000026 Z" id="Shape" fill="#E6E6E6"></path>
            <path d="M141.708009,105.000003 C141.098174,104.999005 140.534179,105.284685 140.228934,105.749195 C139.923689,106.213706 139.923689,106.786294 140.228934,107.250804 C140.534179,107.715315 141.098174,108.000994 141.708009,107.999997 L176.291835,107.999997 C177.233391,108.001612 177.998161,107.33135 177.999997,106.502924 C178.001832,105.674498 177.240038,105.001618 176.298482,105.000003 L141.708009,105.000003 Z" id="Shape" fill="#E6E6E6"></path>
            <path d="M213.708016,87.0000026 C213.098179,86.9990055 212.534181,87.2846851 212.228935,87.7491955 C211.923688,88.2137058 211.923688,88.7862942 212.228935,89.2508045 C212.534181,89.7153149 213.098179,90.0009945 213.708016,89.9999974 L248.291984,89.9999974 C248.901821,90.0009945 249.465819,89.7153149 249.771065,89.2508045 C250.076312,88.7862942 250.076312,88.2137058 249.771065,87.7491955 C249.465819,87.2846851 248.901821,86.9990055 248.291984,87.0000026 L213.708016,87.0000026 Z" id="Shape" fill="#6C63FF"></path>
            <path d="M213.708016,96.0000026 C213.098179,95.9990055 212.534181,96.2846851 212.228935,96.7491955 C211.923688,97.2137058 211.923688,97.7862942 212.228935,98.2508045 C212.534181,98.7153149 213.098179,99.0009945 213.708016,98.9999974 L248.291984,98.9999974 C248.901821,99.0009945 249.465819,98.7153149 249.771065,98.2508045 C250.076312,97.7862942 250.076312,97.2137058 249.771065,96.7491955 C249.465819,96.2846851 248.901821,95.9990055 248.291984,96.0000026 L213.708016,96.0000026 Z" id="Shape" fill="#6C63FF"></path>
            <path d="M213.708016,105.000003 C213.098179,104.999005 212.534181,105.284685 212.228935,105.749195 C211.923688,106.213706 211.923688,106.786294 212.228935,107.250805 C212.534181,107.715315 213.098179,108.000995 213.708016,107.999997 L248.291984,107.999997 C248.901821,108.000995 249.465819,107.715315 249.771065,107.250805 C250.076312,106.786294 250.076312,106.213706 249.771065,105.749195 C249.465819,105.284685 248.901821,104.999005 248.291984,105.000003 L213.708016,105.000003 Z" id="Shape" fill="#6C63FF"></path>
            <path d="M285.701963,87.0000026 C284.761484,87.0015401 284,87.6726613 284,88.5 C284,89.3273387 284.761484,89.9984599 285.701963,89.9999974 L320.291699,89.9999974 C320.901638,90.0009945 321.46573,89.7153149 321.771027,89.2508045 C322.076324,88.7862942 322.076324,88.2137058 321.771027,87.7491955 C321.46573,87.2846851 320.901638,86.9990055 320.291699,87.0000026 L285.701963,87.0000026 Z" id="Shape" fill="#E6E6E6"></path>
            <path d="M285.701963,96.0000026 C284.761484,96.0015401 284,96.6726613 284,97.5 C284,98.3273387 284.761484,98.9984599 285.701963,98.9999974 L320.291699,98.9999974 C320.901638,99.0009945 321.46573,98.7153149 321.771027,98.2508045 C322.076324,97.7862942 322.076324,97.2137058 321.771027,96.7491955 C321.46573,96.2846851 320.901638,95.9990055 320.291699,96.0000026 L285.701963,96.0000026 Z" id="Shape" fill="#E6E6E6"></path>
            <path d="M285.701963,105.000003 C284.761484,105.00154 284,105.672661 284,106.5 C284,107.327339 284.761484,107.99846 285.701963,107.999997 L320.291699,107.999997 C320.901638,108.000995 321.46573,107.715315 321.771027,107.250805 C322.076324,106.786294 322.076324,106.213706 321.771027,105.749195 C321.46573,105.284685 320.901638,104.999005 320.291699,105.000003 L285.701963,105.000003 Z" id="Shape" fill="#E6E6E6"></path>
            <path d="M358.701963,87.0000026 C357.761484,87.0015401 357,87.6726613 357,88.5 C357,89.3273387 357.761484,89.9984599 358.701963,89.9999974 L393.291699,89.9999974 C393.901638,90.0009945 394.46573,89.7153149 394.771027,89.2508045 C395.076324,88.7862942 395.076324,88.2137058 394.771027,87.7491955 C394.46573,87.2846851 393.901638,86.9990055 393.291699,87.0000026 L358.701963,87.0000026 Z" id="Shape" fill="#E6E6E6"></path>
            <path d="M358.701963,96.0000026 C357.761484,96.0015401 357,96.6726613 357,97.5 C357,98.3273387 357.761484,98.9984599 358.701963,98.9999974 L393.291699,98.9999974 C393.901638,99.0009945 394.46573,98.7153149 394.771027,98.2508045 C395.076324,97.7862942 395.076324,97.2137058 394.771027,96.7491955 C394.46573,96.2846851 393.901638,95.9990055 393.291699,96.0000026 L358.701963,96.0000026 Z" id="Shape" fill="#E6E6E6"></path>
            <path d="M358.701963,105.000003 C357.761484,105.00154 357,105.672661 357,106.5 C357,107.327339 357.761484,107.99846 358.701963,107.999997 L393.291699,107.999997 C393.901638,108.000995 394.46573,107.715315 394.771027,107.250805 C395.076324,106.786294 395.076324,106.213706 394.771027,105.749195 C394.46573,105.284685 393.901638,104.999005 393.291699,105.000003 L358.701963,105.000003 Z" id="Shape" fill="#E6E6E6"></path>
            <path d="M428.701963,87.0000026 C427.761484,87.0015401 427,87.6726613 427,88.5 C427,89.3273387 427.761484,89.9984599 428.701963,89.9999974 L463.291699,89.9999974 C463.901638,90.0009945 464.46573,89.7153149 464.771027,89.2508045 C465.076324,88.7862942 465.076324,88.2137058 464.771027,87.7491955 C464.46573,87.2846851 463.901638,86.9990055 463.291699,87.0000026 L428.701963,87.0000026 Z" id="Shape" fill="#E6E6E6"></path>
            <path d="M428.701963,96.0000026 C427.761484,96.0015401 427,96.6726613 427,97.5 C427,98.3273387 427.761484,98.9984599 428.701963,98.9999974 L463.291699,98.9999974 C463.901638,99.0009945 464.46573,98.7153149 464.771027,98.2508045 C465.076324,97.7862942 465.076324,97.2137058 464.771027,96.7491955 C464.46573,96.2846851 463.901638,95.9990055 463.291699,96.0000026 L428.701963,96.0000026 Z" id="Shape" fill="#E6E6E6"></path>
            <path d="M428.701963,105.000003 C427.761484,105.00154 427,105.672661 427,106.5 C427,107.327339 427.761484,107.99846 428.701963,107.999997 L463.291699,107.999997 C463.901638,108.000995 464.46573,107.715315 464.771027,107.250805 C465.076324,106.786294 465.076324,106.213706 464.771027,105.749195 C464.46573,105.284685 463.901638,104.999005 463.291699,105.000003 L428.701963,105.000003 Z" id="Shape" fill="#E6E6E6"></path>
            <path d="M68.7019565,87 C67.7614807,87.0015375 67,87.6726592 67,88.4999986 C67,89.3273379 67.7614807,89.9984596 68.7019565,89.9999971 L103.29155,89.9999971 C103.900732,90.0010419 104.464272,89.7161091 104.769892,89.2525303 C105.075511,88.7889515 105.076778,88.2171553 104.773216,87.7525318 C104.469654,87.2879082 103.90738,87.0010447 103.298199,87 L68.7019565,87 Z" id="Shape" fill="#E6E6E6"></path>
            <path d="M68.7019565,96 C67.7614807,96.0015375 67,96.6726592 67,97.4999986 C67,98.3273379 67.7614807,98.9984596 68.7019565,98.9999971 L103.29155,98.9999971 C103.900732,99.0010419 104.464272,98.7161091 104.769892,98.2525303 C105.075511,97.7889515 105.076778,97.2171553 104.773216,96.7525318 C104.469654,96.2879082 103.90738,96.0010447 103.298199,96 L68.7019565,96 Z" id="Shape" fill="#E6E6E6"></path>
            <path d="M68.7019565,105 C67.7614807,105.001537 67,105.672659 67,106.499999 C67,107.327338 67.7614807,107.99846 68.7019565,107.999997 L103.29155,107.999997 C103.900732,108.001042 104.464272,107.716109 104.769892,107.25253 C105.075511,106.788952 105.076778,106.217155 104.773216,105.752532 C104.469654,105.287908 103.90738,105.001045 103.298199,105 L68.7019565,105 Z" id="Shape" fill="#E6E6E6"></path>
            <ellipse id="Oval" fill="#6C63FF" cx="230.5" cy="28" rx="27.5" ry="28"></ellipse>
            <polygon id="Shape" fill="#6C63FF" points="230.000287 73 221.499857 58 213 43 230.000287 43 247 43 238.500143 58"></polygon>
            <circle id="Oval" fill="#FFFFFF" cx="231" cy="28" r="10"></circle>
            <path d="M515.531113,104 C515.301905,104.000026 515.082087,103.90215 514.920076,103.72793 L510.253104,98.7131854 C509.91563,98.3505586 509.915632,97.7626271 510.25311,97.4000036 C510.590587,97.0373802 511.137743,97.0373829 511.475218,97.4000097 L515.429879,101.649355 L522.439571,91.3782405 C522.722182,90.9656774 523.262318,90.8769164 523.646765,91.1798613 C524.031212,91.4828062 524.114767,92.0630366 523.83351,92.476666 L516.228122,103.620564 C516.07894,103.839045 515.848454,103.976691 515.597011,103.997463 C515.574997,103.999273 515.552916,104 515.531113,104 Z" id="Shape" fill="#FFFFFF"></path>
            <path d="M11.868985,102.999999 C11.5175101,102.999941 11.2006696,102.788186 11.0661739,102.463456 C10.9316782,102.138725 11.0060067,101.764951 11.2545077,101.516387 L20.5175773,92.2534676 C20.8571158,91.9150969 21.4065176,91.9155718 21.7454707,92.2545288 C22.0844239,92.5934859 22.0849038,93.1428991 21.7465433,93.4824478 L12.4834509,102.745372 C12.3206695,102.908631 12.0995281,103.00027 11.868985,102.999999 Z" id="Shape" fill="#B50000"></path>
            <path d="M21.131086,102.999977 C20.9005545,103.000254 20.6794221,102.908627 20.5166492,102.745382 L11.2545274,93.4833914 C11.0350092,93.2638743 10.9492787,92.9439223 11.0296297,92.6440581 C11.1099807,92.344194 11.3442059,92.1099742 11.6440751,92.0296272 C11.9439442,91.9492801 12.2639,92.0350124 12.4834182,92.2545295 L21.7455171,101.516537 C21.9939959,101.765079 22.0683158,102.138812 21.93383,102.463507 C21.7993442,102.788202 21.4825294,102.999936 21.1310803,103 L21.131086,102.999977 Z" id="Shape" fill="#B50000"></path>
            <path d="M341.790143,199.185687 C340.192683,198.275496 339.066083,196.678372 338.713489,194.824069 C338.360895,192.969766 338.818525,191.048762 339.963242,189.577963 L332,132 L345.389096,132.3823 L349.006561,188.859334 C351.31266,191.065546 351.662892,194.711553 349.82179,197.34608 C347.980688,199.980608 344.530197,200.770919 341.790143,199.185675 L341.790143,199.185687 Z" id="Shape" fill="#A0616A"></path>
            <path d="M330.34626,141.345778 C329.717276,140.82137 329.348014,140.048904 329.334889,139.230073 L329.10578,125.097267 C328.403128,120.843717 331.274849,116.823657 335.526295,116.10933 C339.777741,115.395004 343.805495,118.255815 344.531435,122.505453 L348.865297,136.007407 C349.115519,136.787151 349.013962,137.637196 348.587089,138.336039 C348.160217,139.034882 347.45031,139.513303 346.642358,139.646635 L332.609066,141.962218 C331.801027,142.095971 330.974822,141.870894 330.34626,141.345778 Z" id="Shape" fill="#952A00"></path>
            <polygon id="Shape" fill="#A0616A" points="304.998176 298 297.545897 298 294 270 305 270"></polygon>
            <path d="M305.999564,305 L283,304.999173 L283,304.715935 C282.999972,302.404293 283.943135,300.187325 285.621994,298.55276 C287.300853,296.918196 289.577877,295.999937 291.952123,296 L291.952705,296 L306,296.000566 L305.999564,305 Z" id="Shape" fill="#2F2E41"></path>
            <polygon id="Shape" fill="#A0616A" points="344.998176 298 337.545897 298 334 270 345 270"></polygon>
            <path d="M345.999564,305 L323,304.999173 L323,304.715935 C322.999972,302.404293 323.943135,300.187325 325.621994,298.55276 C327.300853,296.918196 329.577877,295.999937 331.952123,296 L331.952705,296 L346,296.000566 L345.999564,305 Z" id="Shape" fill="#2F2E41"></path>
            <path d="M334.708915,284.865664 L322.165319,218.440079 C322.094731,218.02182 321.729619,217.718824 321.307551,217.728243 L321.303982,217.728243 C320.883453,217.717305 320.518153,218.016972 320.444641,218.433189 L307.405182,284.727316 C307.137651,286.035819 305.941677,286.938859 304.616511,286.832948 L294.422421,286.013762 C293.719751,285.957218 293.069002,285.619854 292.615894,285.077217 C292.162786,284.53458 291.945174,283.832005 292.011789,283.126818 L300.587889,190 L344.414421,191.148134 L344.686064,191.155599 L348.997034,284.229013 C349.031175,284.951557 348.769401,285.656636 348.272637,286.180143 C347.775874,286.703651 347.087454,286.999922 346.367607,287 L337.291784,287 C336.034739,286.997814 334.953852,286.104629 334.708915,284.865664 Z" id="Shape" fill="#2F2E41"></path>
            <circle id="Oval" fill="#A0616A" cx="320.5" cy="92.5" r="14.5"></circle>
            <path d="M299.100919,195.070128 C298.110794,194.554895 297.550032,193.450983 297.70588,192.323863 C299.540263,178.885791 298.372019,155.123781 297.0688,137.556486 C296.175727,125.516997 304.06852,114.738432 315.428229,112.484386 C315.605093,112.449684 315.78168,112.415556 315.958399,112.383164 L315.958544,112.383164 C323.027878,111.057211 330.29405,113.214294 335.578615,118.207706 C340.957367,123.212509 343.729237,130.517982 343.063093,137.933612 C341.379346,157.516072 344.369131,186.831339 344.985483,192.508958 C345.073448,193.364302 344.758074,194.211345 344.136559,194.789029 C338.378134,200.177447 331.431868,202 324.669094,202 C313.731946,201.999994 303.274749,197.232203 299.100919,195.070128 Z" id="Shape" fill="#952A00"></path>
            <path d="M288.841585,199.492053 C290.569444,198.769031 291.889861,197.314078 292.447537,195.518691 C293.005213,193.723304 292.742863,191.771909 291.731079,190.189588 L306,134.109319 L292.290623,133 L282.575587,188.473862 C279.986108,190.400379 279.239803,193.968653 280.838425,196.779679 C282.437046,199.590705 285.875296,200.755962 288.841585,199.492029 L288.841585,199.492053 Z" id="Shape" fill="#A0616A"></path>
            <path d="M291.027256,139.996878 C290.25132,139.772456 289.607802,139.208132 289.264391,138.450958 C288.92098,137.693784 288.911691,136.818757 289.238944,136.053893 L294.906636,122.809711 C296.066571,118.571038 300.308015,116.10715 304.389592,117.300988 C308.471169,118.494827 310.853565,122.896151 309.716116,127.141402 L307.995439,141.478465 C307.895501,142.30907 307.452645,143.053329 306.78227,143.517305 C306.111896,143.981281 305.280402,144.119017 304.50446,143.894622 L291.027256,139.996878 Z" id="Shape" fill="#952A00"></path>
            <path d="M325.247323,106.998228 C326.590599,107.023465 327.925498,106.778893 329.174886,106.278644 C329.724619,106.064114 330.295279,105.887781 330.843989,105.673105 C335.689945,103.777207 338.882164,98.5510553 338.996491,93.2916164 C339.110819,88.0321775 336.421147,82.9274042 332.427187,79.5632322 C328.433226,76.1990601 323.260073,74.4718757 318.079998,74.0724706 C312.500216,73.642247 306.217203,75.0751378 303.099281,79.7806991 C302.269347,81.0332432 301.688915,82.5529136 302.180692,84.0652407 C302.327991,84.5216053 302.59106,84.9307961 302.943576,85.2518707 C304.335995,86.5063398 305.724173,85.5631036 307.143628,85.4797645 C309.094654,85.3652208 310.847021,86.9644211 311.476844,88.8378337 C312.106668,90.7112462 311.829424,92.7737238 311.320885,94.6845491 C310.93347,95.8343658 310.689236,97.0286379 310.593843,98.2396936 C310.51039,99.4743706 311.063617,100.664901 312.056271,101.386802 C313.275419,102.133045 314.876483,101.701154 316.096347,100.956105 C317.316212,100.211056 318.370271,99.1751536 319.687949,98.626899 C321.005627,98.0786443 322.775929,98.2002505 323.542869,99.415926 C323.786607,99.8582667 323.951577,100.340589 324.030232,100.84083 C324.717785,104.012929 324.559763,103.826129 325.247323,106.998211 L325.247323,106.998228 Z" id="Shape" fill="#2F2E41"></path>
            <path d="M381.417969,306 L233.582031,306 C233.260584,306 233,305.776142 233,305.5 C233,305.223858 233.260584,305 233.582031,305 L381.417969,305 C381.739416,305 382,305.223858 382,305.5 C382,305.776142 381.739416,306 381.417969,306 Z" id="Shape" fill="#3F3D56"></path>
            <path d="M16.5,115 C7.38730163,115 0,107.388841 0,98 C0,88.6111593 7.38730163,81 16.5,81 C25.6126984,81 33,88.6111593 33,98 C32.9896564,107.384423 25.6084105,114.989343 16.5,115 Z M16.5,82.7894737 C8.34653304,82.7894737 1.73684211,89.5994583 1.73684211,98 C1.73684211,106.400542 8.34653304,113.210526 16.5,113.210526 C24.653467,113.210526 31.2631579,106.400542 31.2631579,98 C31.2538641,89.6034278 24.6496142,82.7990491 16.5,82.7894737 Z" id="Shape" fill="#E6E6E6"></path>
            <path d="M516.5,115 C507.387302,115 500,107.388841 500,98 C500,88.6111593 507.387302,81 516.5,81 C525.612698,81 533,88.6111593 533,98 C532.989656,107.384423 525.60841,114.989343 516.5,115 Z M516.5,82.7894737 C508.346533,82.7894737 501.736842,89.5994583 501.736842,98 C501.736842,106.400542 508.346533,113.210526 516.5,113.210526 C524.653467,113.210526 531.263158,106.400542 531.263158,98 C531.253864,89.6034278 524.649614,82.7990491 516.5,82.7894737 Z" id="Shape" fill="#E6E6E6"></path>
        </g>
    </g>
</svg>